<svg width="218" height="15" viewBox="0 0 218 15" version="1.1" xmlns="http://www.w3.org/2000/svg" xmlns:xlink="http://www.w3.org/1999/xlink">
<title>Group</title>
<desc>Created using Figma</desc>
<g id="Canvas" transform="translate(-364 1202)">
<g id="Group">
<g id="Vector">
<use xlink:href="#path0_fill" transform="translate(364.813 -1201.28)" fill="#959191"/>
</g>
<g id="Vector">
<use xlink:href="#path1_fill" transform="translate(374.151 -1198.22)" fill="#959191"/>
</g>
<g id="Vector">
<use xlink:href="#path2_fill" transform="translate(382.337 -1198.09)" fill="#959191"/>
</g>
<g id="Vector">
<use xlink:href="#path3_fill" transform="translate(391.546 -1201.28)" fill="#959191"/>
</g>
<g id="Vector">
<use xlink:href="#path4_fill" transform="translate(399.604 -1197.96)" fill="#959191"/>
</g>
<g id="Vector">
<use xlink:href="#path5_fill" transform="translate(409.325 -1198.35)" fill="#959191"/>
</g>
<g id="Vector">
<use xlink:href="#path6_fill" transform="translate(417.895 -1197.96)" fill="#959191"/>
</g>
<g id="Vector">
<use xlink:href="#path7_fill" transform="translate(426.209 -1198.09)" fill="#959191"/>
</g>
<g id="Vector">
<use xlink:href="#path8_fill" transform="translate(438.36 -1197.96)" fill="#959191"/>
</g>
<g id="Vector">
<use xlink:href="#path9_fill" transform="translate(451.407 -1201.28)" fill="#959191"/>
</g>
<g id="Vector">
<use xlink:href="#path10_fill" transform="translate(455.244 -1197.96)" fill="#959191"/>
</g>
<g id="Vector">
<use xlink:href="#path11_fill" transform="translate(462.663 -1198.22)" fill="#959191"/>
</g>
<g id="Vector">
<use xlink:href="#path6_fill" transform="translate(470.977 -1197.96)" fill="#959191"/>
</g>
<g id="Vector">
<use xlink:href="#path12_fill" transform="translate(479.29 -1198.09)" fill="#959191"/>
</g>
<g id="Vector">
<use xlink:href="#path13_fill" transform="translate(488.5 -1195.54)" fill="#959191"/>
</g>
<g id="Vector">
<use xlink:href="#path14_fill" transform="translate(493.744 -1201.66)" fill="#959191"/>
</g>
<g id="Vector">
<use xlink:href="#path15_fill" transform="translate(506.535 -1198.22)" fill="#959191"/>
</g>
<g id="Vector">
<use xlink:href="#path16_fill" transform="translate(514.593 -1198.22)" fill="#959191"/>
</g>
<g id="Vector">
<use xlink:href="#path17_fill" transform="translate(523.035 -1197.96)" fill="#959191"/>
</g>
<g id="Vector">
<use xlink:href="#path18_fill" transform="translate(531.732 -1197.96)" fill="#959191"/>
</g>
<g id="Vector">
<use xlink:href="#path19_fill" transform="translate(539.791 -1201.54)" fill="#959191"/>
</g>
<g id="Vector">
<use xlink:href="#path20_fill" transform="translate(543.756 -1197.96)" fill="#959191"/>
</g>
<g id="Vector">
<use xlink:href="#path21_fill" transform="translate(551.174 -1198.73)" fill="#959191"/>
</g>
<g id="Vector">
<use xlink:href="#path22_fill" transform="translate(558.977 -1197.96)" fill="#959191"/>
</g>
<g id="Vector">
<use xlink:href="#path23_fill" transform="translate(566.523 -1197.96)" fill="#959191"/>
</g>
<g id="Vector">
<use xlink:href="#path24_fill" transform="translate(573.942 -1197.96)" fill="#959191"/>
</g>
</g>
</g>
<defs>
<path id="path0_fill" d="M 0.255815 1.14811C 0.639536 0.765405 1.15117 0.51027 1.7907 0.255135C 2.43024 -1.33063e-07 3.06978 1.21658e-07 3.70931 1.21658e-07C 4.34885 1.21658e-07 4.86048 0.127567 5.37211 0.255135C 5.88373 0.382702 6.26746 0.637837 6.65118 0.892972C 7.0349 1.14811 7.29071 1.40324 7.41862 1.78594C 7.54653 2.16865 7.67444 2.55135 7.67444 2.93405C 7.67444 3.44432 7.54653 3.95459 7.29071 4.33729C 7.0349 4.71999 6.65118 5.1027 6.26746 5.35783C 6.52327 5.4854 6.77909 5.61297 6.90699 5.74053C 7.0349 5.8681 7.29071 6.12324 7.41862 6.2508C 7.54653 6.50594 7.67444 6.63351 7.80235 6.88864C 7.93025 7.14377 7.93025 7.39891 7.93025 7.65404C 7.93025 8.16431 7.80234 8.67458 7.67444 9.05729C 7.54653 9.43999 7.16281 9.82269 6.90699 10.2054C 6.52327 10.5881 6.13955 10.8432 5.62792 10.9708C 5.11629 11.0984 4.47675 11.2259 3.83722 11.2259C 3.4535 11.2259 3.06977 11.2259 2.68605 11.0984C 2.30233 10.9708 1.91861 10.9708 1.6628 10.8432C 1.27907 10.7157 1.02326 10.5881 0.767443 10.333C 0.511629 10.2054 0.255814 9.95026 -9.75855e-07 9.69512L 0.639535 8.67458C 0.639535 8.54702 0.767444 8.54702 0.895351 8.54702C 1.02326 8.54702 1.02326 8.41945 1.15117 8.41945C 1.27907 8.41945 1.40698 8.41945 1.53489 8.54702C 1.66279 8.67458 1.91861 8.80215 2.17442 8.92972C 2.43024 9.05729 2.68605 9.18485 2.94187 9.31242C 3.19768 9.43999 3.5814 9.43999 4.09303 9.43999C 4.73257 9.43999 5.3721 9.31242 5.75583 9.05729C 6.13955 8.80215 6.26746 8.29188 6.26746 7.65404C 6.26746 7.39891 6.26746 7.14377 6.13955 7.01621C 6.01164 6.76107 5.88373 6.6335 5.75583 6.50594C 5.62792 6.37837 5.3721 6.2508 5.11629 6.2508C 4.86048 6.12324 4.60466 6.12324 4.22094 6.12324L 2.17442 6.12324L 2.17442 4.46486L 3.5814 4.46486C 4.22094 4.46486 4.73257 4.33729 5.11629 4.08216C 5.50001 3.82702 5.62792 3.44432 5.62792 2.93405C 5.62792 2.55135 5.50001 2.16865 5.11629 1.91351C 4.73257 1.65838 4.22094 1.53081 3.5814 1.53081C 3.19768 1.53081 2.94187 1.53081 2.55814 1.65838C 2.17442 1.78594 2.30233 1.91351 2.04652 2.04108C 1.7907 2.16865 1.66279 2.16865 1.53489 2.29621C 1.40698 2.42378 1.27907 2.42378 1.15117 2.42378C 1.02326 2.42378 1.02326 2.42378 0.895351 2.29621C 0.767444 2.16865 0.767443 2.16865 0.767443 2.04108L 0.255815 1.14811Z"/>
<path id="path1_fill" d="M 1.7907 1.27567C 2.17442 0.892972 2.43024 0.637837 2.94187 0.382702C 3.32559 0.127567 3.83722 2.43316e-07 4.34885 2.43316e-07C 4.73257 2.43316e-07 5.11629 0.127567 5.50002 0.255135C 5.88374 0.382702 6.13955 0.637837 6.39536 1.02054C 6.65118 1.40324 6.90699 1.78594 7.0349 2.29621C 7.16281 2.80648 7.29071 3.31675 7.29071 3.95459C 7.29071 4.59243 7.16281 5.1027 7.0349 5.61297C 6.90699 6.12324 6.65118 6.50594 6.39536 6.88864C 6.13955 7.27134 5.75583 7.52648 5.37211 7.78161C 4.98838 8.03675 4.47676 8.03675 3.96513 8.03675C 3.58141 8.03675 3.19768 7.90918 2.81396 7.78161C 2.55814 7.65404 2.17442 7.39891 1.91861 7.27134L 1.91861 10.4605L -1.95171e-06 10.4605L -1.95171e-06 0.255135L 1.15117 0.255135C 1.40698 0.255135 1.53489 0.382702 1.6628 0.637837L 1.7907 1.27567ZM 1.91861 5.99567C 2.17442 6.2508 2.43024 6.37837 2.55814 6.50594C 2.81396 6.6335 3.06978 6.6335 3.32559 6.6335C 3.58141 6.6335 3.83722 6.6335 4.09303 6.50594C 4.34885 6.37837 4.47675 6.2508 4.73257 5.99567C 4.98838 5.74053 4.98838 5.4854 5.11629 5.1027C 5.2442 4.71999 5.2442 4.33729 5.2442 3.95459C 5.2442 3.44432 5.2442 3.06162 5.11629 2.80648C 4.98838 2.42378 4.98839 2.16865 4.86048 2.04108C 4.73257 1.78594 4.60466 1.65838 4.34885 1.65838C 4.09303 1.65838 3.96513 1.53081 3.70931 1.53081C 3.32559 1.53081 2.94187 1.65838 2.68605 1.78594C 2.43024 1.91351 2.17442 2.16865 1.91861 2.42378L 1.91861 5.99567Z"/>
<path id="path2_fill" d="M 3.96512 1.21658e-07C 4.60466 1.21658e-07 5.11629 0.127567 5.50001 0.255135C 5.88373 0.382702 6.39536 0.765404 6.77909 1.02054C 7.16281 1.40324 7.41862 1.78594 7.54653 2.29621C 7.67444 2.80648 7.80234 3.31675 7.80234 3.95459C 7.80234 4.59243 7.67444 5.1027 7.54653 5.61297C 7.41862 6.12324 7.16281 6.50594 6.77909 6.88864C 6.39536 7.27134 6.01164 7.52648 5.50001 7.65404C 4.98838 7.78161 4.47675 7.90918 3.96512 7.90918C 3.32559 7.90918 2.81396 7.78161 2.30233 7.65404C 1.7907 7.52648 1.40698 7.14377 1.02326 6.88864C 0.639535 6.50594 0.383723 6.12324 0.255816 5.61297C 0.127908 5.1027 0 4.59243 0 3.95459C 0 3.31675 0.127908 2.80648 0.255816 2.29621C 0.383723 1.78594 0.767443 1.40324 1.02326 1.02054C 1.40698 0.637837 1.7907 0.382702 2.30233 0.255135C 2.81396 0.127567 3.45349 1.21658e-07 3.96512 1.21658e-07ZM 3.96512 6.63351C 4.60466 6.63351 5.11629 6.37837 5.37211 5.99567C 5.62792 5.61297 5.88373 4.97513 5.88373 4.08216C 5.88373 3.18919 5.75583 2.55135 5.37211 2.16865C 5.11629 1.65838 4.60466 1.40324 3.96512 1.40324C 3.32559 1.40324 2.81396 1.65838 2.43024 2.04108C 2.04652 2.42378 1.91861 3.18919 1.91861 3.95459C 1.91861 4.84756 2.04652 5.4854 2.43024 5.8681C 2.81396 6.37837 3.32559 6.63351 3.96512 6.63351Z"/>
<path id="path3_fill" d="M 4.34885 1.78594C 3.83722 1.78594 3.45349 1.91351 3.06977 2.04108C 2.68605 2.16865 2.43024 2.42378 2.17443 2.67892C 1.91861 2.93405 1.7907 3.31675 1.66279 3.57189C 1.53489 3.95459 1.53489 4.33729 1.40698 4.84756C 1.53489 4.59243 1.6628 4.46486 1.91861 4.33729C 2.04652 4.20972 2.30233 4.08216 2.55815 3.95459C 2.81396 3.82702 3.06977 3.69945 3.32559 3.69945C 3.5814 3.69945 3.83722 3.57189 4.22094 3.57189C 4.73257 3.57189 5.2442 3.69945 5.62792 3.82702C 6.13955 3.95459 6.52327 4.33729 6.77909 4.59243C 7.0349 4.84756 7.29072 5.35783 7.41862 5.8681C 7.54653 6.37837 7.67444 6.88864 7.67444 7.39891C 7.67444 8.03675 7.54653 8.54702 7.41862 9.05729C 7.29072 9.56756 6.907 9.95026 6.65118 10.333C 6.39537 10.7157 5.88374 10.9708 5.37211 11.0984C 4.86048 11.2259 4.34885 11.3535 3.83722 11.3535C 3.32559 11.3535 2.68605 11.2259 2.30233 11.0984C 1.7907 10.9708 1.40698 10.5881 1.02326 10.2054C 0.639536 9.82269 0.383724 9.31242 0.255817 8.54702C 1.94409e-06 7.90918 9.75855e-07 7.01621 9.75855e-07 6.12324C 9.75855e-07 5.35783 0.127909 4.59243 0.255817 3.82702C 0.383724 3.18919 0.639536 2.55135 1.02326 2.04108C 1.40698 1.53081 1.7907 1.14811 2.30233 0.765404C 2.81396 0.51027 3.5814 0.255135 4.34885 0.255135L 7.16281 1.21658e-07L 7.29072 1.02054C 7.29072 1.27567 7.29071 1.40324 7.16281 1.53081C 7.0349 1.65838 6.90699 1.78594 6.77909 1.78594L 4.34885 1.78594ZM 3.83722 9.82269C 4.47676 9.82269 4.98838 9.56756 5.2442 9.18485C 5.50001 8.80215 5.75583 8.16431 5.75583 7.39891C 5.75583 6.6335 5.62792 5.99567 5.2442 5.61297C 4.98838 5.23026 4.47676 4.97513 3.83722 4.97513C 3.19768 4.97513 2.68605 5.23026 2.30233 5.61297C 1.91861 5.99567 1.7907 6.6335 1.7907 7.39891C 1.7907 8.29188 1.91861 8.80215 2.30233 9.31242C 2.68605 9.82269 3.19768 9.82269 3.83722 9.82269Z"/>
<path id="path4_fill" d="M 8.31397 7.78161L 6.39536 7.78161L 6.39536 1.40324L 4.47676 1.40324C 4.47676 2.42378 4.34885 3.18919 4.22094 3.95459C 4.09303 4.59243 3.96513 5.23026 3.70931 5.74053C 3.58141 6.2508 3.32559 6.6335 3.06978 6.88864C 2.81396 7.14377 2.55815 7.39891 2.43024 7.52648C 2.17443 7.65404 1.91861 7.78161 1.66279 7.90918C 1.40698 8.03675 1.15117 8.03675 0.895352 8.03675C 0.639537 8.03675 0.383723 8.03675 0.255816 7.90918C 0.127908 7.78161 9.08836e-15 7.78161 9.08836e-15 7.65404L 9.08836e-15 6.50594L 0.511631 6.50594C 0.639538 6.50594 0.89535 6.50594 1.02326 6.37837C 1.15116 6.2508 1.40698 6.2508 1.53489 6.12324C 1.6628 5.99567 1.7907 5.74053 2.04651 5.4854C 2.17442 5.23026 2.30233 4.84756 2.43024 4.33729C 2.55815 3.82702 2.68605 3.31675 2.68605 2.55135C 2.81396 1.91351 2.81396 1.02054 2.94187 -2.26605e-15L 8.31397 -2.26605e-15L 8.31397 7.78161Z"/>
<path id="path5_fill" d="M 1.91861 4.46486C 1.91861 4.84756 2.04652 5.23026 2.17442 5.4854C 2.30233 5.74053 2.43024 5.99567 2.55814 6.2508C 2.68605 6.50594 2.94187 6.6335 3.19768 6.6335C 3.4535 6.76107 3.70932 6.76107 4.09304 6.76107C 4.34885 6.76107 4.60466 6.76107 4.86048 6.6335C 5.11629 6.50594 5.2442 6.50594 5.50002 6.37837C 5.62792 6.2508 5.75582 6.2508 5.88373 6.12324C 6.01164 5.99567 6.13955 5.99567 6.26746 5.99567C 6.39536 5.99567 6.52328 5.99567 6.65118 6.12324L 7.1628 6.76107C 6.90699 7.01621 6.77908 7.27134 6.39536 7.39891C 6.01164 7.52648 5.88374 7.65405 5.62792 7.78161C 5.37211 7.90918 5.1163 7.90918 4.73257 8.03675C 4.47676 8.03675 4.09303 8.03675 3.83722 8.03675C 3.32559 8.03675 2.81396 7.90918 2.30233 7.78161C 1.7907 7.65405 1.40698 7.27134 1.02326 7.01621C 0.639538 6.63351 0.383721 6.2508 0.255814 5.74053C -9.72043e-07 5.23026 -1.95171e-06 4.59243 -1.95171e-06 3.95459C -1.95171e-06 3.44432 0.127906 2.93405 0.255814 2.42378C 0.383721 1.91351 0.639538 1.53081 1.02326 1.14811C 1.40698 0.765404 1.7907 0.51027 2.17442 0.255135C 2.68605 1.14054e-07 3.19768 -2.43316e-07 3.70931 -2.43316e-07C 4.22094 -2.43316e-07 4.60466 0.127568 5.11629 0.255135C 5.50001 0.382702 5.88374 0.637837 6.13955 0.892972C 6.39537 1.14811 6.65118 1.53081 6.90699 2.04108C 7.0349 2.42378 7.1628 2.93405 7.1628 3.57189C 7.1628 3.82702 7.16281 4.08216 7.0349 4.20972C 7.0349 4.33729 6.907 4.33729 6.65118 4.33729L 1.91861 4.33729L 1.91861 4.46486ZM 5.50002 3.31675C 5.50002 3.06162 5.50002 2.80648 5.37211 2.67892C 5.2442 2.42378 5.2442 2.29621 5.11629 2.16865C 4.98838 2.04108 4.73257 1.78594 4.60466 1.65838C 4.34884 1.53081 4.09303 1.53081 3.83722 1.53081C 3.32559 1.53081 2.81396 1.65838 2.55814 2.04108C 2.30233 2.29621 2.04651 2.80648 1.91861 3.31675L 5.50002 3.31675Z"/>
<path id="path6_fill" d="M 6.90699 0L 6.90699 7.90918L 4.98838 7.90918L 4.98838 4.46486L 1.91861 4.46486L 1.91861 7.90918L 3.90342e-06 7.90918L 3.90342e-06 0L 1.91861 0L 1.91861 2.93405L 4.98838 2.93405L 4.98838 0L 6.90699 0Z"/>
<path id="path7_fill" d="M 3.96513 1.21658e-07C 4.60466 1.21658e-07 5.11629 0.127567 5.50001 0.255135C 5.88373 0.382702 6.39536 0.765404 6.77908 1.02054C 7.16281 1.40324 7.41862 1.78594 7.54653 2.29621C 7.67443 2.80648 7.80235 3.31675 7.80235 3.95459C 7.80235 4.59243 7.67443 5.1027 7.54653 5.61297C 7.41862 6.12324 7.16281 6.50594 6.77908 6.88864C 6.39536 7.27134 6.01164 7.52648 5.50001 7.65404C 4.98838 7.78161 4.47676 7.90918 3.96513 7.90918C 3.32559 7.90918 2.81396 7.78161 2.30233 7.65404C 1.7907 7.52648 1.40698 7.14377 1.02326 6.88864C 0.639534 6.50594 0.383722 6.12324 0.255815 5.61297C 0.127907 5.1027 3.90342e-06 4.59243 3.90342e-06 3.95459C 3.90342e-06 3.31675 0.127907 2.80648 0.255815 2.29621C 0.383722 1.78594 0.767442 1.40324 1.02326 1.02054C 1.40698 0.637837 1.7907 0.382702 2.30233 0.255135C 2.81396 0.127567 3.32559 1.21658e-07 3.96513 1.21658e-07ZM 3.96513 6.63351C 4.60466 6.63351 5.11629 6.37837 5.37211 5.99567C 5.62792 5.61297 5.88374 4.97513 5.88374 4.08216C 5.88374 3.18919 5.75583 2.55135 5.37211 2.16865C 5.11629 1.65838 4.60466 1.40324 3.96513 1.40324C 3.32559 1.40324 2.81396 1.65838 2.43023 2.04108C 2.17442 2.55135 2.04652 3.18919 2.04652 3.95459C 2.04652 4.84756 2.17443 5.4854 2.55815 5.8681C 2.81396 6.37837 3.32559 6.63351 3.96513 6.63351Z"/>
<path id="path8_fill" d="M 8.05816 0L 3.70931 9.95026C 3.70931 10.0778 3.5814 10.2054 3.4535 10.2054C 3.32559 10.333 3.19768 10.333 3.06977 10.333L 1.66279 10.333L 3.19769 7.14377L 3.90342e-06 0L 1.66279 0C 1.7907 0 1.91861 -1.23559e-07 2.04652 0.127567C 2.17443 0.255135 2.17442 0.255135 2.17442 0.382702L 3.83722 4.46486C 3.83722 4.59243 3.96513 4.71999 3.96513 4.84756C 3.96513 4.97513 4.09303 5.1027 4.09303 5.23026C 4.09303 5.1027 4.22094 4.97513 4.22094 4.84756C 4.22094 4.71999 4.34884 4.59243 4.34884 4.46486L 5.88374 0.382702C 5.88374 0.255135 6.01164 0.255135 6.13955 0.127567C 6.26745 -1.23559e-07 6.39537 0 6.52327 0L 8.05816 0Z"/>
<path id="path9_fill" d="M 2.04651 11.0984L 0 11.0984L 0 1.21658e-07L 2.04651 1.21658e-07L 2.04651 11.0984Z"/>
<path id="path10_fill" d="M 3.32559 0C 3.83722 0 4.22094 -1.23559e-07 4.60466 0.127567C 4.98838 0.255135 5.2442 0.382702 5.50002 0.51027C 5.75583 0.637837 5.88373 0.892972 6.01164 1.14811C 6.13955 1.40324 6.13955 1.65838 6.13955 1.91351C 6.13955 2.04108 6.13955 2.29621 6.01164 2.42378C 6.01164 2.55135 5.88374 2.80648 5.75583 2.93405C 5.62792 3.06162 5.50001 3.31675 5.2442 3.44432C 5.11629 3.57189 4.86048 3.69946 4.47676 3.82702C 4.73257 3.82702 4.98838 3.95459 5.2442 4.08216C 5.50001 4.20972 5.62792 4.33729 5.75583 4.46486C 5.88374 4.59243 6.01165 4.84756 6.13955 4.97513C 6.26746 5.23026 6.26746 5.35783 6.26746 5.61297C 6.26746 5.99567 6.13955 6.37837 6.01164 6.6335C 5.88373 6.88864 5.62792 7.14378 5.3721 7.39891C 5.11629 7.52648 4.73257 7.78161 4.34885 7.78161C 3.96513 7.90918 3.5814 7.90918 3.19768 7.90918L 1.81767e-14 7.90918L 1.81767e-14 0L 3.32559 0ZM 2.04651 1.14811L 2.04651 3.18919L 3.32559 3.18919C 3.4535 3.18919 3.70931 3.18918 3.83722 3.06162C 3.96513 2.93405 4.09304 2.93405 4.22094 2.80648C 4.34885 2.67892 4.47676 2.55135 4.47676 2.42378C 4.47676 2.29621 4.60466 2.16865 4.60466 1.91351C 4.60466 1.78594 4.60466 1.65838 4.60466 1.53081C 4.60466 1.40324 4.47676 1.27567 4.34885 1.27567C 4.22094 1.27567 4.09303 1.27567 3.83722 1.27567C 3.5814 1.27567 3.4535 1.14811 3.19768 1.14811L 2.04651 1.14811ZM 3.45349 6.50594C 3.83721 6.50594 4.22094 6.37837 4.34885 6.2508C 4.60466 5.99567 4.73257 5.74053 4.73257 5.4854C 4.73257 5.35783 4.73257 5.23026 4.73257 5.1027C 4.73257 4.97513 4.60466 4.84756 4.47676 4.71999C 4.34885 4.59243 4.22094 4.59243 4.09303 4.46486C 3.96512 4.33729 3.70931 4.33729 3.45349 4.33729L 2.04651 4.33729L 2.04651 6.37837L 3.45349 6.37837L 3.45349 6.50594Z"/>
<path id="path11_fill" d="M 0.38372 1.27567C 1.27907 0.51027 2.43023 2.43316e-07 3.70931 2.43316e-07C 4.22094 2.43316e-07 4.60466 0.127567 4.98838 0.255135C 5.3721 0.382702 5.62792 0.637837 5.88374 0.892972C 6.13955 1.14811 6.26746 1.53081 6.39537 1.91351C 6.52328 2.29621 6.65118 2.67892 6.65118 3.18919L 6.65118 8.16431L 5.75583 8.16431C 5.62792 8.16431 5.50001 8.16431 5.37211 8.03675C 5.2442 8.03675 5.2442 7.90918 5.1163 7.65404L 4.98838 7.14377C 4.73257 7.27134 4.60466 7.52648 4.34884 7.65404C 4.22094 7.78161 3.96512 7.90918 3.70931 8.03675C 3.45349 8.16431 3.32559 8.16431 3.06977 8.29188C 2.81396 8.29188 2.55814 8.41945 2.30233 8.41945C 1.91861 8.41945 1.6628 8.41945 1.40698 8.29188C 1.15117 8.16431 0.895355 8.03675 0.63954 7.90918C 0.383726 7.78161 0.255817 7.52648 0.127909 7.27134C 1.95362e-06 7.01621 3.90342e-06 6.63351 3.90342e-06 6.37837C 3.90342e-06 6.12324 1.95362e-06 5.99567 0.127909 5.74053C 0.255817 5.4854 0.255811 5.35783 0.511625 5.23026C 0.76744 5.1027 0.895347 4.84756 1.15116 4.71999C 1.40698 4.59243 1.6628 4.46486 2.04652 4.33729C 2.43024 4.20972 2.81396 4.08216 3.32559 4.08216C 3.83722 3.95459 4.34885 3.95459 4.86048 3.95459L 4.86048 3.06162C 4.86048 2.55135 4.73257 2.16865 4.47676 1.91351C 4.09304 1.65838 3.83722 1.53081 3.32559 1.53081C 3.06978 1.53081 2.81396 1.53081 2.55815 1.65838C 2.30234 1.78594 2.17443 1.78594 2.04652 1.91351C 1.91861 2.04108 1.7907 2.04108 1.66279 2.16865C 1.53489 2.29621 1.40698 2.29621 1.27908 2.29621C 1.15117 2.29621 1.02326 2.29621 0.895351 2.16865C 0.767444 2.04108 0.767448 2.04108 0.63954 1.91351L 0.38372 1.27567ZM 4.73257 4.71999C 4.22094 4.71999 3.70931 4.84756 3.32559 4.84756C 2.94187 4.97513 2.68605 4.97513 2.43023 5.1027C 2.17442 5.23026 2.04652 5.35783 1.91861 5.4854C 1.79071 5.61297 1.7907 5.74053 1.7907 5.99567C 1.7907 6.37837 1.91861 6.50594 2.04652 6.76107C 2.30233 6.88864 2.55815 7.01621 2.81396 7.01621C 3.19768 7.01621 3.58141 6.88864 3.83722 6.76107C 4.09304 6.63351 4.34885 6.37837 4.73257 6.12324L 4.73257 4.71999Z"/>
<path id="path12_fill" d="M 3.96513 1.21658e-07C 4.60466 1.21658e-07 5.11629 0.127567 5.50001 0.255135C 5.88373 0.382702 6.39536 0.765404 6.77908 1.02054C 7.16281 1.40324 7.41862 1.78594 7.54653 2.29621C 7.67443 2.80648 7.80235 3.31675 7.80235 3.95459C 7.80235 4.59243 7.67443 5.1027 7.54653 5.61297C 7.41862 6.12324 7.16281 6.50594 6.77908 6.88864C 6.39536 7.27134 6.01164 7.52648 5.50001 7.65404C 4.98838 7.78161 4.47676 7.90918 3.96513 7.90918C 3.32559 7.90918 2.81396 7.78161 2.30233 7.65404C 1.7907 7.52648 1.40698 7.14377 1.02326 6.88864C 0.639534 6.50594 0.383722 6.12324 0.255815 5.61297C 0.127907 5.1027 3.90342e-06 4.59243 3.90342e-06 3.95459C 3.90342e-06 3.31675 0.127907 2.80648 0.255815 2.29621C 0.383722 1.78594 0.767442 1.40324 1.02326 1.02054C 1.40698 0.637837 1.7907 0.382702 2.30233 0.255135C 2.81396 0.127567 3.32559 1.21658e-07 3.96513 1.21658e-07ZM 3.96513 6.63351C 4.60466 6.63351 5.11629 6.37837 5.37211 5.99567C 5.62792 5.61297 5.88374 4.97513 5.88374 4.08216C 5.88374 3.18919 5.75583 2.55135 5.37211 2.16865C 5.11629 1.78594 4.60466 1.53081 3.96513 1.53081C 3.32559 1.53081 2.81396 1.78594 2.43023 2.16865C 2.04651 2.55135 1.91861 3.31675 1.91861 4.08216C 1.91861 4.97513 2.04651 5.61297 2.43023 5.99567C 2.81396 6.37837 3.19768 6.63351 3.96513 6.63351Z"/>
<path id="path13_fill" d="M 0 -4.86631e-07L 3.96512 -4.86631e-07L 3.96512 1.53081L 0 1.53081L 0 -4.86631e-07Z"/>
<path id="path14_fill" d="M 6.77908 1.27567C 7.41861 1.27567 8.05815 1.40324 8.69769 1.65838C 9.33722 1.91351 9.72096 2.16865 10.2326 2.67892C 10.7442 3.18918 11 3.57189 11.2558 4.08216C 11.5116 4.59243 11.6396 5.23026 11.6396 5.74053C 11.6396 6.37837 11.5116 6.88864 11.2558 7.39891C 11 7.90918 10.7442 8.41945 10.2326 8.80215C 9.84887 9.18485 9.33722 9.56756 8.69769 9.82269C 8.05815 10.0778 7.54652 10.2054 6.77908 10.2054L 6.77908 11.4811L 4.86047 11.4811L 4.86047 10.2054C 4.22093 10.2054 3.5814 10.0778 2.94186 9.82269C 2.30232 9.56756 1.91861 9.31242 1.40698 8.80215C 1.02325 8.41945 0.639538 7.90918 0.383724 7.39891C 0.127909 6.88864 -1.95171e-06 6.2508 -1.95171e-06 5.74053C -1.95171e-06 5.1027 0.127909 4.59243 0.383724 4.08216C 0.639538 3.57189 0.895347 3.06162 1.40698 2.67892C 1.91861 2.29621 2.30232 1.91351 2.94186 1.65838C 3.5814 1.40324 4.09303 1.27567 4.86047 1.27567L 4.86047 -1.21658e-07L 6.77908 -1.21658e-07L 6.77908 1.27567ZM 4.73257 2.80648C 4.34885 2.80648 3.96513 2.93405 3.70931 3.06162C 3.32559 3.18919 3.06978 3.44432 2.81396 3.69945C 2.55815 3.95459 2.43023 4.20972 2.30232 4.59243C 2.17442 4.97513 2.17443 5.35783 2.17443 5.74053C 2.17443 6.12324 2.17442 6.50594 2.30232 6.88864C 2.43023 7.27134 2.55815 7.52648 2.81396 7.78161C 3.06978 8.03675 3.32559 8.29188 3.70931 8.41945C 4.09303 8.54702 4.34885 8.67458 4.73257 8.67458L 4.73257 2.80648ZM 6.77908 8.54702C 7.1628 8.54702 7.54653 8.41945 7.80234 8.29188C 8.18606 8.16431 8.44187 7.90918 8.69769 7.65404C 8.9535 7.39891 9.08142 7.14377 9.20933 6.76107C 9.33724 6.37837 9.46514 5.99567 9.46514 5.61297C 9.46514 5.23026 9.33724 4.84756 9.20933 4.46486C 9.08142 4.08216 8.9535 3.82702 8.69769 3.57189C 8.44187 3.31675 8.18606 3.06162 7.80234 2.93405C 7.41862 2.80648 7.1628 2.67892 6.77908 2.67892L 6.77908 8.54702Z"/>
<path id="path15_fill" d="M 1.7907 1.27567C 2.17442 0.892972 2.43023 0.637837 2.94186 0.382702C 3.32558 0.127567 3.83722 2.43316e-07 4.34885 2.43316e-07C 4.73257 2.43316e-07 5.11628 0.127567 5.50001 0.255135C 5.88373 0.382702 6.13956 0.637837 6.39537 1.02054C 6.65119 1.40324 6.907 1.78594 7.03491 2.29621C 7.16282 2.80648 7.29072 3.31675 7.29072 3.95459C 7.29072 4.59243 7.16282 5.1027 7.03491 5.61297C 6.907 6.12324 6.65119 6.50594 6.39537 6.88864C 6.13956 7.27134 5.75583 7.52648 5.37211 7.78161C 4.98839 8.03675 4.47675 8.03675 3.96512 8.03675C 3.5814 8.03675 3.19769 7.90918 2.81396 7.78161C 2.55815 7.65404 2.17443 7.39891 1.91862 7.27134L 1.91862 10.4605L 7.80684e-06 10.4605L 7.80684e-06 0.255135L 1.15117 0.255135C 1.40698 0.255135 1.53488 0.382702 1.66279 0.637837L 1.7907 1.27567ZM 1.91862 5.99567C 2.17443 6.2508 2.43025 6.37837 2.55815 6.50594C 2.81397 6.6335 3.06977 6.6335 3.32559 6.6335C 3.5814 6.6335 3.83722 6.6335 4.09304 6.50594C 4.34885 6.37837 4.47676 6.2508 4.73257 5.99567C 4.98839 5.74053 4.98839 5.4854 5.1163 5.1027C 5.24421 4.71999 5.24419 4.33729 5.24419 3.95459C 5.24419 3.44432 5.24421 3.06162 5.1163 2.80648C 4.98839 2.42378 4.98838 2.16865 4.86047 2.04108C 4.73256 1.78594 4.60466 1.65838 4.34885 1.65838C 4.09303 1.65838 3.83722 1.53081 3.70931 1.53081C 3.32559 1.53081 2.94186 1.65838 2.68605 1.78594C 2.43023 1.91351 2.17443 2.16865 1.91862 2.42378L 1.91862 5.99567Z"/>
<path id="path16_fill" d="M 0.383718 1.27567C 1.27907 0.51027 2.43024 2.43316e-07 3.70932 2.43316e-07C 4.22094 2.43316e-07 4.60467 0.127567 4.98839 0.255135C 5.37211 0.382702 5.62792 0.637837 5.88374 0.892972C 6.13955 1.14811 6.26745 1.53081 6.39536 1.91351C 6.52326 2.29621 6.65119 2.67892 6.65119 3.18919L 6.65119 8.16431L 5.75582 8.16431C 5.62791 8.16431 5.50002 8.16431 5.37211 8.03675C 5.24421 8.03675 5.24419 7.90918 5.11628 7.65404L 4.98839 7.14377C 4.73257 7.27134 4.60467 7.52648 4.34885 7.65404C 4.22094 7.78161 3.96513 7.90918 3.70932 8.03675C 3.4535 8.16431 3.32559 8.16431 3.06978 8.29188C 2.81396 8.29188 2.55814 8.41945 2.30233 8.41945C 1.91861 8.41945 1.66279 8.41945 1.40698 8.29188C 1.15117 8.16431 0.895343 8.03675 0.639529 7.90918C 0.383714 7.78161 0.255815 7.52648 0.127907 7.27134C 0 7.01621 -7.80684e-06 6.63351 -7.80684e-06 6.37837C -7.80684e-06 6.12324 0 5.99567 0.127907 5.74053C 0.255815 5.4854 0.255818 5.35783 0.511633 5.23026C 0.767448 5.1027 0.895355 4.84756 1.15117 4.71999C 1.40698 4.59243 1.66279 4.46486 2.04652 4.33729C 2.43024 4.20972 2.81396 4.08216 3.32559 4.08216C 3.83722 3.95459 4.34884 3.95459 4.86047 3.95459L 4.86047 3.06162C 4.86047 2.55135 4.73256 2.16865 4.47675 1.91351C 4.22093 1.65838 3.96513 1.53081 3.4535 1.53081C 3.19769 1.53081 2.94187 1.53081 2.68605 1.65838C 2.43024 1.78594 2.30234 1.78594 2.17443 1.91351C 2.04652 2.04108 1.91861 2.04108 1.79071 2.16865C 1.6628 2.29621 1.53489 2.29621 1.40698 2.29621C 1.27907 2.29621 1.15116 2.29621 1.02325 2.16865C 0.895347 2.04108 0.895351 2.04108 0.767444 1.91351L 0.383718 1.27567ZM 4.73258 4.71999C 4.22095 4.71999 3.70931 4.84756 3.32559 4.84756C 2.94187 4.97513 2.68606 4.97513 2.43024 5.1027C 2.17443 5.23026 2.04652 5.35783 2.04652 5.4854C 1.91861 5.61297 1.9186 5.74053 1.9186 5.99567C 1.9186 6.37837 2.04652 6.50594 2.17443 6.76107C 2.43025 6.88864 2.68605 7.01621 2.94186 7.01621C 3.32559 7.01621 3.70931 6.88864 3.96513 6.76107C 4.22094 6.63351 4.47675 6.37837 4.86047 6.12324L 4.86047 4.71999L 4.73258 4.71999Z"/>
<path id="path17_fill" d="M 6.77909 0L 6.77909 7.90918L 4.86048 7.90918L 4.86048 4.46486L 1.79069 4.46486L 1.79069 7.90918L 0 7.90918L 0 0L 1.91861 0L 1.91861 2.93405L 4.98838 2.93405L 4.98838 0L 6.77909 0Z"/>
<path id="path18_fill" d="M 4.73257 0.51027C 4.86048 0.382702 4.98839 0.255135 5.1163 0.127567C 5.2442 -1.23559e-07 5.3721 0 5.62792 0L 7.1628 0L 5.37211 2.93405C 5.2442 3.18919 5.11629 3.31675 4.98838 3.44432C 4.86047 3.57189 4.73257 3.69945 4.47676 3.69945C 4.73257 3.82702 4.98839 3.82702 5.1163 4.08216C 5.2442 4.20972 5.37211 4.46486 5.50002 4.59243L 7.29072 7.78161L 6.01164 7.78161C 5.62792 7.78161 5.3721 7.78161 5.24419 7.65404C 5.11628 7.52648 4.86048 7.39891 4.73257 7.14378L 3.58141 4.97513C 3.4535 4.84756 3.32559 4.59243 3.19769 4.59243C 3.06978 4.46486 2.81395 4.46486 2.68605 4.46486L 1.91861 4.46486L 1.91861 7.90918L 3.90342e-06 7.90918L 3.90342e-06 0L 1.91861 0L 1.91861 3.18919L 2.55815 3.18919C 2.81396 3.18919 2.94186 3.18918 3.06977 3.06162C 3.19768 2.93405 3.32559 2.80648 3.4535 2.67892L 4.73257 0.51027Z"/>
<path id="path19_fill" d="M 2.55815 1.27567C 2.55815 1.40324 2.55815 1.53081 2.43024 1.78594C 2.30233 1.91351 2.30234 2.04108 2.17443 2.16865C 2.04652 2.29621 1.91861 2.42378 1.7907 2.42378C 1.66279 2.55135 1.5349 2.55135 1.27908 2.55135C 1.15117 2.55135 1.02325 2.55135 0.76744 2.42378C 0.639533 2.42378 0.511621 2.29621 0.383714 2.16865C 0.255807 2.04108 0.127903 1.91351 0.127903 1.78594C -3.90723e-06 1.65838 7.80684e-06 1.53081 7.80684e-06 1.27567C 7.80684e-06 1.14811 -3.90723e-06 0.892972 0.127903 0.765405C 0.127903 0.637837 0.255807 0.51027 0.383714 0.382702C 0.511621 0.255135 0.639533 0.127568 0.76744 0.127568C 0.895347 0.127568 1.02327 -2.43315e-07 1.27908 -2.43315e-07C 1.40699 -2.43315e-07 1.66279 2.37613e-07 1.7907 0.127568C 1.91861 0.255135 2.04652 0.255135 2.17443 0.382702C 2.30234 0.51027 2.43024 0.637837 2.43024 0.765405C 2.43024 0.892972 2.55815 1.02054 2.55815 1.27567ZM 2.30232 3.57189L 2.30232 11.4811L 0.383714 11.4811L 0.383714 3.57189L 2.30232 3.57189Z"/>
<path id="path20_fill" d="M 3.32559 0C 3.83722 0 4.22094 -1.23559e-07 4.60467 0.127567C 4.98839 0.255135 5.2442 0.382702 5.50001 0.51027C 5.75583 0.637837 5.88373 0.892972 6.01164 1.14811C 6.13954 1.27567 6.13955 1.53081 6.13955 1.91351C 6.13955 2.04108 6.13954 2.29621 6.01164 2.42378C 6.01164 2.55135 5.88373 2.80648 5.75582 2.93405C 5.62792 3.06162 5.50002 3.31675 5.2442 3.44432C 5.1163 3.57189 4.86047 3.69946 4.47675 3.82702C 4.73257 3.82702 4.98839 3.95459 5.2442 4.08216C 5.50002 4.20972 5.62792 4.33729 5.75582 4.46486C 5.88373 4.59243 6.01164 4.84756 6.13955 4.97513C 6.26746 5.23026 6.26747 5.35783 6.26747 5.61297C 6.26747 5.99567 6.13954 6.37837 6.01164 6.6335C 5.88373 6.88864 5.62791 7.14378 5.3721 7.39891C 5.11628 7.52648 4.73258 7.78161 4.34886 7.78161C 3.96513 7.90918 3.5814 7.90918 3.19768 7.90918L -3.90342e-06 7.90918L -3.90342e-06 0L 3.32559 0ZM 2.04652 1.14811L 2.04652 3.18919L 3.32559 3.18919C 3.4535 3.18919 3.70931 3.18918 3.83721 3.06162C 3.96512 2.93405 4.09303 2.93405 4.22094 2.80648C 4.34885 2.67892 4.47675 2.55135 4.47675 2.42378C 4.47675 2.29621 4.60467 2.16865 4.60467 1.91351C 4.60467 1.78594 4.60467 1.65838 4.60467 1.53081C 4.60467 1.40324 4.47676 1.27567 4.34886 1.27567C 4.22095 1.27567 3.96512 1.27567 3.83721 1.27567C 3.70931 1.27567 3.45349 1.14811 3.19768 1.14811L 2.04652 1.14811ZM 3.45349 6.50594C 3.83721 6.50594 4.22095 6.37837 4.34886 6.2508C 4.60467 5.99567 4.73256 5.74053 4.73256 5.4854C 4.73256 5.35783 4.73256 5.23026 4.73256 5.1027C 4.73256 4.97513 4.60466 4.84756 4.47675 4.71999C 4.34884 4.59243 4.22093 4.59243 4.09303 4.46486C 3.96512 4.33729 3.7093 4.33729 3.45349 4.33729L 2.04652 4.33729L 2.04652 6.37837L 3.45349 6.37837L 3.45349 6.50594Z"/>
<path id="path21_fill" d="M 6.13955 2.42378C 6.13955 2.55135 6.01164 2.55135 6.01164 2.55135C 6.01164 2.55135 5.88374 2.55135 5.75583 2.55135C 5.62792 2.55135 5.50002 2.55135 5.50002 2.42378C 5.37211 2.42378 5.2442 2.29621 5.11629 2.16865C 4.98838 2.04108 4.86048 2.04108 4.60467 1.91351C 4.47676 1.91351 4.22095 1.78594 3.96513 1.78594C 3.58141 1.78594 3.32558 1.78594 3.06977 1.91351C 2.81395 2.04108 2.55814 2.16865 2.43023 2.42378C 2.30232 2.67892 2.17443 2.93405 2.04652 3.18918C 1.91862 3.57189 1.91861 3.82702 1.91861 4.20972C 1.91861 4.59243 1.91862 4.97513 2.04652 5.35783C 2.17443 5.74053 2.30232 5.99567 2.43023 6.12324C 2.55814 6.37837 2.81395 6.50594 3.06977 6.63351C 3.32558 6.76107 3.5814 6.76107 3.83722 6.76107C 4.09303 6.76107 4.34886 6.76107 4.60467 6.63351C 4.73258 6.50594 4.98838 6.50594 5.11629 6.37837C 5.2442 6.2508 5.37211 6.2508 5.50002 6.12324C 5.62792 5.99567 5.75583 5.99567 5.75583 5.99567C 5.88374 5.99567 6.01165 5.99567 6.13955 6.12324L 6.65118 6.76107C 6.39536 7.01621 6.26745 7.27134 6.01164 7.39891C 5.75582 7.52648 5.50002 7.65404 5.24421 7.78161C 4.98839 7.90918 4.73257 7.90918 4.47676 8.03675C 4.22094 8.16431 3.96513 8.03675 3.58141 8.03675C 3.06978 8.03675 2.68605 7.90918 2.17442 7.78161C 1.7907 7.65404 1.40698 7.39891 1.02326 7.01621C 0.63954 6.6335 0.383718 6.2508 0.255811 5.74053C 0.127903 5.23026 -1.0906e-13 4.71999 -1.0906e-13 4.08216C -1.0906e-13 3.44432 0.127903 2.93405 0.255811 2.42378C 0.383718 1.91351 0.63954 1.53081 1.02326 1.14811C 1.40698 0.765405 1.7907 0.51027 2.17442 0.255135C 2.68605 -1.33063e-07 3.19768 1.21658e-07 3.83722 1.21658e-07C 4.47676 1.21658e-07 4.98838 0.127567 5.3721 0.255135C 5.75582 0.382702 6.26747 0.765404 6.52328 1.02054L 6.13955 2.42378Z"/>
<path id="path22_fill" d="M 3.32558 2.80648C 3.83721 2.80648 4.34884 2.93405 4.73257 3.06162C 5.11629 3.18918 5.3721 3.31675 5.62791 3.57189C 5.88373 3.82702 6.01163 4.08216 6.13953 4.33729C 6.26744 4.59243 6.26745 4.97513 6.26745 5.23026C 6.26745 5.61297 6.13955 5.99567 6.01164 6.2508C 5.88373 6.50594 5.62792 6.88864 5.3721 7.01621C 5.11629 7.14377 4.86048 7.39891 4.47676 7.52648C 4.09303 7.65404 3.70931 7.65404 3.19768 7.65404L 0 7.65404L 0 0L 1.79069 0L 1.79069 2.93405L 3.32558 2.93405L 3.32558 2.80648ZM 3.32558 6.50594C 3.7093 6.50594 4.09303 6.37837 4.34884 6.12324C 4.60465 5.8681 4.60465 5.61297 4.60465 5.35783C 4.60465 5.23026 4.60466 5.1027 4.47676 4.97513C 4.47676 4.84756 4.34883 4.71999 4.22092 4.59243C 4.09302 4.46486 3.96513 4.46486 3.83722 4.33729C 3.70931 4.20972 3.4535 4.20972 3.19768 4.20972L 1.79069 4.20972L 1.79069 6.50594L 3.32558 6.50594Z"/>
<path id="path23_fill" d="M 4.73257 0.51027C 4.86047 0.382702 4.98838 0.255135 5.11629 0.127567C 5.2442 -1.23559e-07 5.50001 0 5.62791 0L 7.16282 0L 5.3721 2.93405C 5.24419 3.18919 5.11628 3.31675 4.98838 3.44432C 4.86047 3.57189 4.73257 3.69945 4.47676 3.69945C 4.73257 3.82702 4.98838 3.82702 5.11629 4.08216C 5.2442 4.20972 5.37211 4.46486 5.50002 4.59243L 7.29071 7.78161L 6.01164 7.78161C 5.62792 7.78161 5.37211 7.78161 5.24421 7.65404C 5.1163 7.52648 4.86047 7.39891 4.73257 7.14378L 3.58141 4.97513C 3.4535 4.84756 3.32559 4.59243 3.19768 4.59243C 3.06977 4.46486 2.81397 4.46486 2.68606 4.46486L 1.91861 4.46486L 1.91861 7.90918L 0 7.90918L 0 0L 1.91861 0L 1.91861 3.18919L 2.55815 3.18919C 2.81396 3.18919 2.94186 3.18918 3.06977 3.06162C 3.19767 2.93405 3.32559 2.80648 3.45349 2.67892L 4.73257 0.51027Z"/>
<path id="path24_fill" d="M 8.05817 0L 3.70931 9.95026C 3.70931 10.0778 3.5814 10.2054 3.4535 10.2054C 3.32559 10.333 3.19768 10.333 3.06977 10.333L 1.6628 10.333L 3.19769 7.14377L 3.90342e-06 0L 1.6628 0C 1.79071 0 1.9186 -1.23559e-07 2.04651 0.127567C 2.17442 0.255135 2.17442 0.255135 2.17442 0.382702L 3.83722 4.46486C 3.83722 4.59243 3.96512 4.71999 3.96512 4.84756C 3.96512 4.97513 4.09303 5.1027 4.09303 5.23026C 4.09303 5.1027 4.22095 4.97513 4.22095 4.84756C 4.22095 4.71999 4.34884 4.59243 4.34884 4.46486L 5.88373 0.382702C 5.88373 0.255135 6.01165 0.255135 6.13956 0.127567C 6.26746 -1.23559e-07 6.39537 0 6.39537 0L 8.05817 0Z"/>
</defs>
</svg>
